PathFileType	4	(X/Y/Z)	 2.8Hzlow_3min.trc
DataRate	CameraRate	NumFrames	NumMarkers	Units	OrigDataRate	OrigDataStartFrame	OrigNumFrames
200	200	8	43	m	200	251	1000
Frame#	Time	C7			LSH			RSH			MAN			RASI			LASI			HIPR			HIPL			RPSI			LPSI			COX			RTHI1			RTHI2			RTHI3			RTHI4			RLKN			RMKN			RSHA1			RSHA2			RSHA3			RSHA4			RLMAL			RMMAL			RHEEL			RMET5			RMET1			RTOE			LTHI1			LTHI2			LTHI3			LTHI4			LLKN			LMKN			LSHA1			LSHA2			LSHA3			LSHA4			LLMAL			LMMAL			LHEEL			LMET5			LMET1			LTOE			
		X1	Y1	Z1	X2	Y2	Z2	X3	Y3	Z3	X4	Y4	Z4	X5	Y5	Z5	X6	Y6	Z6	X7	Y7	Z7	X8	Y8	Z8	X9	Y9	Z9	X10	Y10	Z10	X11	Y11	Z11	X12	Y12	Z12	X13	Y13	Z13	X14	Y14	Z14	X15	Y15	Z15	X16	Y16	Z16	X17	Y17	Z17	X18	Y18	Z18	X19	Y19	Z19	X20	Y20	Z20	X21	Y21	Z21	X22	Y22	Z22	X23	Y23	Z23	X24	Y24	Z24	X25	Y25	Z25	X26	Y26	Z26	X27	Y27	Z27	X28	Y28	Z28	X29	Y29	Z29	X30	Y30	Z30	X31	Y31	Z31	X32	Y32	Z32	X33	Y33	Z33	X34	Y34	Z34	X35	Y35	Z35	X36	Y36	Z36	X37	Y37	Z37	X38	Y38	Z38	X39	Y39	Z39	X40	Y40	Z40	X41	Y41	Z41	X42	Y42	Z42	X43	Y43	Z43	
251	1.2550	-0.273836	1.530799	-0.579545	-0.190755	1.511760	-0.773228	-0.185356	1.509361	-0.377384	-0.121968	1.467998	-0.576010	-0.089893	1.023550	-0.450513	-0.086890	1.031750	-0.702127	-0.175582	1.071900	-0.411770	-0.171690	1.073093	-0.738560	-0.273266	1.061004	-0.526251	-0.272492	1.059919	-0.619246	-0.276406	1.058357	-0.574385	-0.185143	0.778933	-0.388362	-0.174732	0.719386	-0.390553	-0.110805	0.726863	-0.386180	-0.112469	0.788201	-0.383539	-0.169536	0.503724	-0.409860	-0.153450	0.483085	-0.528006	-0.253232	0.330182	-0.398883	-0.271804	0.295509	-0.404679	-0.201900	0.308958	-0.400903	-0.214044	0.271961	-0.410794	-0.318106	0.129489	-0.426369	-0.279142	0.129495	-0.504671	-0.367539	0.126916	-0.478910	-0.236002	0.039067	-0.391278	-0.179799	0.045391	-0.451561	-0.154209	0.035085	-0.449792	-0.186816	0.783747	-0.765775	-0.176105	0.723150	-0.765681	-0.111868	0.728063	-0.773768	-0.115026	0.787960	-0.775372	-0.150110	0.523751	-0.754595	-0.138906	0.510450	-0.637589	-0.257713	0.309376	-0.762962	-0.271669	0.272581	-0.757046	-0.213509	0.253902	-0.755882	-0.205898	0.294376	-0.767128	-0.301084	0.137389	-0.751584	-0.272812	0.137951	-0.670829	-0.354540	0.131271	-0.696759	-0.217965	0.034683	-0.774784	-0.168267	0.042442	-0.701752	-0.144680	0.033456	-0.707407	
252	1.2600	-0.274391	1.533857	-0.579436	-0.191380	1.515595	-0.772791	-0.186035	1.513413	-0.377596	-0.122601	1.471845	-0.575931	-0.089225	1.027822	-0.450976	-0.086331	1.035637	-0.701897	-0.174444	1.076362	-0.412012	-0.170541	1.077186	-0.738564	-0.272278	1.065197	-0.526233	-0.271528	1.064019	-0.619655	-0.275575	1.062504	-0.574559	-0.185112	0.782636	-0.388034	-0.175050	0.723017	-0.390114	-0.111072	0.730133	-0.385787	-0.112383	0.791486	-0.383261	-0.170787	0.507090	-0.409274	-0.154445	0.486250	-0.527470	-0.253044	0.333298	-0.397846	-0.271601	0.298294	-0.403783	-0.202012	0.312069	-0.399970	-0.213923	0.275022	-0.409796	-0.316919	0.131502	-0.425133	-0.277796	0.131796	-0.503367	-0.366142	0.129391	-0.477759	-0.235356	0.039712	-0.391183	-0.179504	0.045826	-0.450976	-0.154168	0.035252	-0.449224	-0.186467	0.787311	-0.766323	-0.176119	0.726637	-0.766220	-0.111810	0.731172	-0.773947	-0.114600	0.791090	-0.775505	-0.151210	0.526992	-0.754953	-0.140328	0.513789	-0.637742	-0.257689	0.311923	-0.763450	-0.271345	0.274992	-0.757625	-0.213014	0.256716	-0.756658	-0.205766	0.297312	-0.767773	-0.299583	0.139384	-0.752503	-0.271247	0.140080	-0.671772	-0.352783	0.133924	-0.697496	-0.217269	0.035374	-0.774579	-0.168018	0.042712	-0.701901	-0.144688	0.033585	-0.707811	
253	1.2650	-0.274852	1.536776	-0.579305	-0.192033	1.519249	-0.772391	-0.186638	1.517222	-0.377825	-0.123208	1.475531	-0.575881	-0.088604	1.031860	-0.451459	-0.085897	1.039293	-0.701717	-0.173277	1.080732	-0.412287	-0.169513	1.081211	-0.738537	-0.271381	1.069281	-0.526198	-0.270651	1.068027	-0.620035	-0.274827	1.066580	-0.574713	-0.185147	0.786147	-0.387758	-0.175425	0.726464	-0.389727	-0.111389	0.733233	-0.385392	-0.112379	0.794601	-0.382978	-0.171899	0.510263	-0.408719	-0.155348	0.489241	-0.526979	-0.252638	0.336352	-0.396761	-0.271382	0.300870	-0.403001	-0.202031	0.315022	-0.399111	-0.213722	0.277908	-0.408874	-0.315773	0.133450	-0.423952	-0.276505	0.133985	-0.502126	-0.364795	0.131748	-0.476631	-0.234686	0.040459	-0.391110	-0.179201	0.046306	-0.450286	-0.154157	0.035466	-0.448490	-0.186164	0.790715	-0.766807	-0.176148	0.729976	-0.766716	-0.111781	0.734166	-0.774133	-0.114236	0.794095	-0.775644	-0.152174	0.530067	-0.755268	-0.141525	0.516887	-0.637903	-0.257562	0.314361	-0.763889	-0.270939	0.277307	-0.758153	-0.212453	0.259423	-0.757362	-0.205547	0.300124	-0.768351	-0.298085	0.141350	-0.753375	-0.269737	0.142129	-0.672643	-0.351085	0.136489	-0.698218	-0.216560	0.036152	-0.774366	-0.167750	0.043041	-0.702132	-0.144680	0.033766	-0.708315	
254	1.2700	-0.275238	1.539557	-0.579169	-0.192650	1.522693	-0.772005	-0.187138	1.520767	-0.378056	-0.123782	1.479019	-0.575862	-0.088062	1.035620	-0.451955	-0.085603	1.042652	-0.701549	-0.172107	1.084999	-0.412600	-0.168619	1.085137	-0.738477	-0.270594	1.073233	-0.526146	-0.269878	1.071912	-0.620387	-0.274174	1.070560	-0.574842	-0.185249	0.789436	-0.387549	-0.175837	0.729699	-0.389412	-0.111756	0.736160	-0.385004	-0.112454	0.797522	-0.382692	-0.172838	0.513209	-0.408220	-0.156155	0.492042	-0.526544	-0.252186	0.339196	-0.395769	-0.271365	0.303117	-0.402423	-0.201944	0.317792	-0.398340	-0.213439	0.280596	-0.408038	-0.314688	0.135334	-0.422832	-0.275306	0.136082	-0.500966	-0.363568	0.134002	-0.475548	-0.234001	0.041336	-0.391045	-0.178907	0.046840	-0.449477	-0.154171	0.035736	-0.447568	-0.185913	0.793935	-0.767200	-0.176200	0.733142	-0.767149	-0.111781	0.737021	-0.774320	-0.113940	0.796963	-0.775790	-0.152974	0.532961	-0.755531	-0.142490	0.519743	-0.638047	-0.257326	0.316686	-0.764294	-0.270447	0.279513	-0.758638	-0.211820	0.262002	-0.757984	-0.205222	0.302790	-0.768863	-0.296617	0.143276	-0.754189	-0.268307	0.144097	-0.673434	-0.349486	0.138935	-0.698931	-0.215851	0.037036	-0.774167	-0.167474	0.043444	-0.702451	-0.144652	0.034014	-0.708926	
255	1.2750	-0.275551	1.542184	-0.579034	-0.193229	1.525906	-0.771644	-0.187545	1.524036	-0.378276	-0.124292	1.482291	-0.575863	-0.087582	1.039089	-0.452456	-0.085408	1.045768	-0.701422	-0.170948	1.089122	-0.412949	-0.167848	1.088959	-0.738380	-0.269915	1.077010	-0.526067	-0.269223	1.075646	-0.620702	-0.273630	1.074411	-0.574946	-0.185408	0.792489	-0.387423	-0.176268	0.732716	-0.389173	-0.112152	0.738902	-0.384623	-0.112598	0.800256	-0.382409	-0.173574	0.515915	-0.407784	-0.156859	0.494633	-0.526170	-0.251732	0.341796	-0.394888	-0.271387	0.305204	-0.401898	-0.201760	0.320337	-0.397665	-0.213077	0.283088	-0.407311	-0.313676	0.137133	-0.421768	-0.274244	0.138065	-0.499902	-0.362494	0.136151	-0.474529	-0.233322	0.042340	-0.390960	-0.178636	0.047444	-0.448575	-0.154208	0.036081	-0.446457	-0.185712	0.796958	-0.767496	-0.176276	0.736120	-0.767499	-0.111813	0.739731	-0.774510	-0.113707	0.799676	-0.775934	-0.153594	0.535656	-0.755746	-0.143253	0.522349	-0.638162	-0.256979	0.318879	-0.764674	-0.269867	0.281607	-0.759086	-0.211129	0.264426	-0.758506	-0.204789	0.305291	-0.769303	-0.295215	0.145156	-0.754940	-0.266997	0.145983	-0.674130	-0.348035	0.141239	-0.699637	-0.215153	0.038038	-0.774005	-0.167190	0.043934	-0.702853	-0.144597	0.034336	-0.709625	
256	1.2800	-0.275789	1.544632	-0.578908	-0.193752	1.528870	-0.771318	-0.187840	1.526978	-0.378487	-0.124730	1.485321	-0.575880	-0.087137	1.042256	-0.452961	-0.085306	1.048635	-0.701339	-0.169847	1.093052	-0.413357	-0.167221	1.092648	-0.738252	-0.269351	1.080584	-0.525964	-0.268697	1.079198	-0.620975	-0.273198	1.078099	-0.575026	-0.185605	0.795280	-0.387380	-0.176704	0.735489	-0.389023	-0.112553	0.741440	-0.384257	-0.112798	0.802785	-0.382141	-0.174104	0.518384	-0.407424	-0.157452	0.496990	-0.525863	-0.251462	0.344009	-0.394242	-0.271225	0.307210	-0.401335	-0.201477	0.322665	-0.397103	-0.212648	0.285355	-0.406690	-0.312774	0.138879	-0.420790	-0.273356	0.139937	-0.498961	-0.361597	0.138175	-0.473589	-0.232684	0.043476	-0.390837	-0.178401	0.048146	-0.447610	-0.154255	0.036540	-0.445193	-0.185561	0.799772	-0.767675	-0.176364	0.738891	-0.767747	-0.111872	0.742275	-0.774696	-0.113534	0.802229	-0.776068	-0.154019	0.538138	-0.755905	-0.143824	0.524705	-0.638229	-0.256520	0.320920	-0.765030	-0.269213	0.283581	-0.759503	-0.210381	0.266690	-0.758934	-0.204256	0.307606	-0.769648	-0.293921	0.146984	-0.755620	-0.265851	0.147785	-0.674728	-0.346777	0.143399	-0.700337	-0.214489	0.039162	-0.773909	-0.166896	0.044546	-0.703322	-0.144520	0.034761	-0.710397	
257	1.2850	-0.275948	1.546901	-0.578791	-0.194224	1.531576	-0.771041	-0.188029	1.529589	-0.378673	-0.125095	1.488077	-0.575907	-0.086761	1.045125	-0.453472	-0.085285	1.051264	-0.701275	-0.168828	1.096742	-0.413812	-0.166724	1.096175	-0.738096	-0.268916	1.083933	-0.525836	-0.268309	1.082537	-0.621198	-0.272877	1.081590	-0.575074	-0.185811	0.797804	-0.387418	-0.177098	0.738015	-0.388956	-0.112922	0.743766	-0.383923	-0.113023	0.805111	-0.381901	-0.174408	0.520585	-0.407139	-0.157930	0.499110	-0.525622	-0.251319	0.345884	-0.393800	-0.271028	0.309048	-0.400839	-0.201111	0.324764	-0.396655	-0.212179	0.287383	-0.406182	-0.312015	0.140563	-0.419926	-0.272669	0.141689	-0.498144	-0.360896	0.140054	-0.472714	-0.232116	0.044755	-0.390643	-0.178197	0.048990	-0.446646	-0.154299	0.037171	-0.443868	-0.185449	0.802363	-0.767728	-0.176451	0.741449	-0.767886	-0.111943	0.744650	-0.774871	-0.113416	0.804610	-0.776181	-0.154232	0.540382	-0.756009	-0.144208	0.526809	-0.638245	-0.255961	0.322817	-0.765371	-0.268508	0.285430	-0.759897	-0.209607	0.268778	-0.759255	-0.203637	0.309723	-0.769905	-0.292782	0.148747	-0.756220	-0.264900	0.149499	-0.675219	-0.345754	0.145404	-0.701019	-0.213881	0.040426	-0.773906	-0.166610	0.045286	-0.703822	-0.144423	0.035336	-0.711216	
258	1.2900	-0.276059	1.548976	-0.578710	-0.194597	1.533990	-0.770790	-0.188123	1.531878	-0.378826	-0.125371	1.490541	-0.575934	-0.086466	1.047698	-0.453979	-0.085354	1.053670	-0.701209	-0.167905	1.100167	-0.414299	-0.166357	1.099505	-0.737908	-0.268604	1.087042	-0.525689	-0.268057	1.085628	-0.621370	-0.272665	1.084854	-0.575091	-0.186002	0.800066	-0.387523	-0.177410	0.740268	-0.388952	-0.113227	0.745891	-0.383634	-0.113228	0.807233	-0.381703	-0.174483	0.522527	-0.406924	-0.158286	0.500985	-0.525442	-0.251350	0.347368	-0.393592	-0.270858	0.310682	-0.400422	-0.200679	0.326609	-0.396315	-0.211699	0.289192	-0.405802	-0.311411	0.142183	-0.419164	-0.272190	0.143336	-0.497467	-0.360407	0.141795	-0.471936	-0.231639	0.046183	-0.390365	-0.178039	0.050001	-0.445732	-0.154342	0.038018	-0.442564	-0.185368	0.804711	-0.767652	-0.176522	0.743766	-0.767907	-0.112006	0.746841	-0.775025	-0.113343	0.806807	-0.776266	-0.154219	0.542379	-0.756068	-0.144414	0.528664	-0.638208	-0.255321	0.324557	-0.765698	-0.267782	0.287156	-0.760269	-0.208837	0.270662	-0.759464	-0.202947	0.311627	-0.770078	-0.291836	0.150440	-0.756727	-0.264145	0.151116	-0.675599	-0.344991	0.147246	-0.701648	-0.213343	0.041848	-0.774006	-0.166354	0.046168	-0.704329	-0.144328	0.036067	-0.712053	
